<?xml version="1.0" standalone="no"?>
<!DOCTYPE svg PUBLIC "-//W3C//DTD SVG 20010904//EN"
 "http://www.w3.org/TR/2001/REC-SVG-20010904/DTD/svg10.dtd">
<svg version="1.0" xmlns="http://www.w3.org/2000/svg"
 width="480.000000pt" height="480.000000pt" viewBox="0 0 480.000000 480.000000"
 preserveAspectRatio="xMidYMid meet">
<metadata>
Created by potrace 1.11, written by Peter Selinger 2001-2013
</metadata>
<g transform="translate(0.000000,480.000000) scale(0.100000,-0.100000)"
fill="#000000" stroke="none">
<path d="M1626 4308 c-23 -37 -28 -84 -16 -145 16 -74 32 -105 87 -164 l44
-47 -21 -34 c-34 -56 -22 -134 30 -193 10 -11 21 -31 25 -44 4 -15 10 -19 14
-12 7 10 6 -63 -1 -144 -3 -27 0 -30 32 -35 19 -3 34 -11 33 -17 -1 -6 10 -25
25 -41 16 -17 26 -37 24 -50 -5 -35 36 -48 91 -30 l44 14 -2 -25 c-1 -14 -11
-45 -23 -67 -31 -61 -102 -242 -102 -262 -1 -9 -9 0 -20 22 -11 21 -24 43 -29
50 -5 6 -11 22 -13 36 -2 14 -9 24 -16 22 -8 -1 -10 2 -7 8 9 14 -24 52 -38
43 -5 -3 -7 -1 -4 4 8 13 -17 36 -27 25 -4 -4 -6 0 -4 8 2 8 -2 14 -8 13 -7
-1 -20 8 -30 20 l-19 22 23 -19 c30 -26 28 -5 -3 27 l-25 25 -61 -19 c-97 -30
-102 -35 -122 -126 -5 -24 26 -83 44 -83 8 0 7 6 -2 18 -13 15 -12 16 3 4 10
-8 16 -19 15 -25 -1 -7 6 -11 15 -11 10 1 15 -2 13 -7 -3 -4 7 -15 22 -23 49
-25 109 -98 172 -208 66 -115 76 -159 41 -178 -11 -6 -20 -8 -20 -5 0 3 -10 0
-22 -6 -21 -11 -22 -11 -9 5 8 9 20 15 28 12 8 -3 11 -1 8 4 -12 19 -36 10
-52 -18 -9 -16 -29 -36 -45 -45 -32 -19 -48 -52 -41 -88 4 -20 -7 -35 -56 -83
-34 -32 -61 -62 -61 -67 0 -4 -19 -13 -42 -19 -32 -9 -38 -14 -27 -22 11 -8
10 -9 -3 -4 -20 6 -50 -3 -44 -13 2 -3 -18 -4 -45 -3 -38 3 -49 1 -49 -10 0
-21 33 -48 58 -48 44 0 10 -42 -43 -54 -16 -4 -45 -21 -62 -39 -38 -35 -44
-62 -13 -54 13 3 20 0 20 -9 0 -8 16 -16 40 -20 22 -4 40 -10 40 -15 0 -14 62
-10 90 4 14 8 24 18 23 24 -1 6 11 23 27 38 17 16 30 25 30 21 0 -5 7 -3 15 4
18 15 20 35 3 24 -7 -4 -8 -3 -4 5 4 6 11 9 16 6 5 -3 12 0 15 6 4 5 13 8 20
5 8 -3 44 19 82 49 70 56 89 61 121 32 10 -9 22 -14 26 -10 4 4 4 0 1 -9 -6
-15 -10 -13 -31 10 -22 23 -24 24 -14 5 13 -27 -5 -67 -72 -158 -85 -116 -245
-227 -409 -286 l-90 -32 7 -31 c13 -62 67 -151 126 -209 l60 -59 -32 -33 -31
-32 43 -36 c60 -49 164 -96 241 -110 l64 -11 -24 -75 c-14 -42 -28 -123 -34
-183 -10 -113 -31 -184 -73 -248 l-25 -38 22 -6 c12 -3 32 -6 44 -6 12 0 25
-5 29 -12 4 -7 3 -8 -4 -4 -7 4 -20 3 -29 -3 -11 -6 -24 -6 -35 0 -20 11 -71
-9 -61 -24 3 -6 2 -7 -4 -4 -6 4 -33 -5 -62 -19 -44 -22 -51 -30 -51 -55 0
-37 17 -45 110 -54 82 -8 166 7 154 27 -4 7 -3 8 4 4 7 -4 38 2 69 13 32 11
87 22 122 25 76 7 107 24 116 65 7 32 -1 55 -15 46 -4 -3 -14 3 -21 13 -13 15
-12 16 4 3 10 -8 17 -9 17 -3 0 6 -8 15 -17 21 -10 5 -16 11 -13 14 3 2 26 18
51 35 l46 31 13 -24 c9 -16 11 -42 7 -78 l-7 -53 55 -53 c34 -32 58 -63 62
-82 3 -16 9 -29 13 -29 16 0 38 175 46 360 3 63 7 116 8 118 6 5 151 -51 196
-76 126 -71 252 -208 254 -276 1 -22 -4 -33 -14 -33 -8 -1 -32 -9 -52 -17 -48
-21 -52 -53 -8 -69 17 -6 30 -15 30 -19 0 -15 75 -42 119 -42 42 -1 47 2 63
34 9 19 15 41 13 48 -3 7 0 10 5 7 19 -12 39 59 38 136 -1 41 4 84 10 96 7 12
9 30 6 40 -5 14 -4 15 4 4 9 -12 12 -10 17 11 10 41 2 69 -25 90 -25 18 -66
16 -55 -2 3 -5 0 -12 -6 -16 -8 -5 -9 -3 -4 6 6 9 4 12 -6 8 -12 -5 -15 9 -16
81 -1 62 -9 109 -27 166 -14 44 -26 84 -26 90 0 5 29 15 65 22 68 12 200 75
218 104 8 12 -6 32 -66 95 -107 113 -197 228 -236 302 l-12 22 88 -6 c48 -4
93 -11 100 -16 7 -6 13 -3 16 9 2 10 3 -7 1 -37 -6 -84 -8 -98 -15 -94 -4 2
-14 -7 -23 -21 -16 -24 -16 -25 25 -45 65 -34 73 -27 79 65 l5 80 20 -55 c11
-30 24 -73 30 -95 7 -30 16 -41 33 -43 26 -4 92 16 92 28 0 4 -27 52 -60 107
l-60 98 153 7 c83 3 153 6 154 5 0 -1 -19 -45 -43 -97 -90 -191 -227 -327
-457 -455 l-68 -37 6 -42 c10 -60 44 -113 123 -187 53 -50 81 -69 118 -79 27
-7 68 -24 91 -37 24 -14 67 -27 98 -30 33 -4 51 -9 44 -14 -7 -4 -20 -22 -29
-41 -13 -28 -21 -33 -50 -33 -38 -1 -102 -23 -96 -34 3 -3 -13 -5 -33 -3 -75
7 -52 -64 24 -74 32 -4 37 -3 25 6 -13 10 -13 11 0 7 8 -2 15 -10 15 -17 0
-24 65 -30 133 -14 36 9 79 13 100 10 152 -25 175 -19 170 47 -2 25 -8 41 -15
40 -6 -1 -17 5 -25 15 -12 16 -11 16 6 2 18 -14 19 -13 13 3 -4 10 -7 25 -7
32 0 8 -7 21 -16 29 -14 15 -11 16 28 16 24 0 59 5 79 10 30 8 44 7 80 -10 50
-22 108 -25 159 -8 19 6 80 15 135 19 55 4 113 10 128 13 16 2 26 1 22 -2 -4
-4 -12 -7 -18 -7 -7 0 -12 -5 -12 -12 0 -6 -4 -15 -9 -20 -5 -4 -6 -3 -3 4 10
17 -92 10 -103 -7 -11 -17 -2 -33 12 -24 6 4 8 2 5 -3 -9 -14 38 -63 61 -63
10 0 23 -5 30 -12 18 -18 122 -15 160 5 19 11 30 22 26 29 -4 7 -3 8 4 4 6 -3
16 2 21 13 14 26 14 34 -1 25 -10 -5 -10 -4 -1 6 7 8 21 15 30 16 149 18 163
23 163 58 0 13 -8 30 -17 37 -14 12 -16 12 -8 0 5 -10 4 -12 -4 -7 -6 4 -9 11
-6 16 3 5 -6 17 -20 26 -14 9 -25 19 -25 23 0 3 21 14 48 23 67 25 115 56 109
72 -4 9 3 16 17 20 47 12 177 153 176 192 0 5 -22 24 -48 41 -58 39 -202 171
-202 184 0 6 19 35 42 66 l42 55 -24 18 c-69 51 -67 41 -21 101 22 30 41 57
41 61 0 4 -16 15 -36 23 -34 14 -140 82 -194 124 l-25 20 62 -6 c60 -6 62 -7
140 -82 146 -142 189 -157 237 -83 39 60 41 79 11 86 l-26 7 22 30 c11 16 23
47 26 68 l5 38 -58 23 c-33 13 -62 26 -66 29 -4 4 4 24 18 44 40 59 56 116 57
197 0 89 -20 165 -73 273 -81 162 -180 288 -373 470 -159 150 -210 210 -230
270 -8 23 -36 105 -62 182 -26 77 -59 176 -74 220 -32 97 -85 159 -144 170
-54 10 -123 -18 -172 -70 -22 -23 -56 -50 -75 -60 -30 -15 -64 -43 -162 -132
-20 -18 -34 -80 -49 -212 -6 -53 -15 -105 -19 -116 -4 -11 -13 -33 -19 -48
-14 -35 -14 -40 1 -31 7 4 8 3 4 -5 -4 -6 -11 -9 -16 -6 -15 9 -40 -51 -40
-95 0 -23 6 -54 14 -69 14 -26 12 -36 -25 -147 -74 -222 -212 -468 -370 -659
-59 -72 -61 -76 -43 -90 58 -46 111 -79 222 -137 l122 -65 -39 -11 c-54 -17
-74 -15 -93 7 -14 16 -29 20 -80 19 -64 0 -98 -16 -98 -45 0 -10 -20 -13 -79
-13 -90 0 -111 12 -111 61 0 67 -60 207 -140 324 l-48 71 37 40 c21 22 43 48
49 59 12 20 12 20 30 -3 16 -21 21 -21 52 -11 45 16 77 36 116 72 28 25 34 27
52 16 17 -11 25 -9 54 13 60 45 100 92 124 143 36 75 33 91 -17 98 -53 7 -103
47 -154 123 -31 45 -53 99 -94 234 -29 96 -69 209 -88 250 -46 95 -135 188
-208 215 -59 22 -69 34 -49 56 7 8 14 27 14 42 0 14 5 38 10 53 8 21 6 33 -10
61 -33 56 -28 62 38 40 64 -21 145 -18 171 7 12 13 13 24 3 63 -6 30 -7 52 -1
57 17 18 9 42 -27 84 -26 30 -34 47 -29 62 11 33 -39 88 -109 121 -78 37 -87
37 -79 -2 l6 -30 -38 25 c-51 35 -65 33 -65 -7 0 -49 -25 -126 -50 -152 -18
-19 -29 -22 -59 -18 -20 3 -45 12 -56 19 -29 21 -79 17 -111 -8 -23 -18 -39
-22 -86 -20 -48 2 -61 -1 -75 -18 -10 -11 -23 -20 -30 -20 -6 0 -17 -8 -22
-17 -9 -15 -10 -12 -11 17 0 49 16 107 47 166 29 55 26 84 -7 84 -13 0 -20 7
-20 19 0 26 -52 51 -106 51 -34 0 -47 -5 -58 -22z m205 -505 c12 -16 12 -17
-2 -6 -9 7 -20 9 -24 5 -5 -4 -5 -1 -1 6 9 16 11 15 27 -5z m-4 -145 c-3 -7
-5 -2 -5 12 0 14 2 19 5 13 2 -7 2 -19 0 -25z m284 -55 c13 -16 12 -17 -3 -4
-17 13 -22 21 -14 21 2 0 10 -8 17 -17z m-64 -25 c-3 -8 -6 -5 -6 6 -1 11 2
17 5 13 3 -3 4 -12 1 -19z m338 -78 c47 -32 90 -104 100 -169 9 -54 -5 -228
-15 -191 -19 68 -112 211 -174 269 -29 28 -33 53 -11 71 8 7 15 23 15 37 0 21
3 23 23 17 12 -4 40 -19 62 -34z m1168 -37 c-7 -2 -21 -2 -30 0 -10 3 -4 5 12
5 17 0 24 -2 18 -5z m-40 -30 c-7 -2 -19 -2 -25 0 -7 3 -2 5 12 5 14 0 19 -2
13 -5z m-1828 -160 c14 -66 15 -63 -13 -56 -15 4 -35 7 -44 7 -24 0 -23 3 11
21 21 10 29 21 26 35 -2 11 0 20 5 20 5 0 12 -12 15 -27z m10 -273 c10 -11 16
-20 13 -20 -3 0 -13 9 -23 20 -10 11 -16 20 -13 20 3 0 13 -9 23 -20z m2422
-32 c-3 -8 -6 -5 -6 6 -1 11 2 17 5 13 3 -3 4 -12 1 -19z m3 -48 c0 -4 14 -20
31 -34 33 -28 27 -36 -8 -11 -20 14 -22 13 -26 -2 -3 -12 -5 -10 -6 7 0 14
-11 43 -22 65 l-21 40 26 -28 c14 -15 26 -32 26 -37z m-2267 35 c-3 -9 -8 -14
-10 -11 -3 3 -2 9 2 15 9 16 15 13 8 -4z m2282 -128 c4 5 5 2 1 -5 -5 -8 6
-28 29 -53 89 -99 155 -233 155 -315 0 -57 -31 -119 -70 -139 -42 -21 -50 -19
-50 15 0 53 -26 97 -114 189 -101 107 -106 123 -86 299 l13 114 56 -56 c32
-31 61 -53 66 -49z m-1679 -181 c-17 -56 -74 -161 -83 -153 -2 3 1 15 7 27 6
11 13 44 15 73 2 29 5 54 6 57 1 3 3 21 4 40 1 19 13 65 26 101 l24 65 9 -80
c7 -64 5 -90 -8 -130z m1721 188 c-3 -3 -12 -4 -19 -1 -8 3 -5 6 6 6 11 1 17
-2 13 -5z m-798 -59 c19 -29 24 -41 13 -34 -10 6 -27 29 -39 50 -28 51 -13 41
26 -16z m358 -37 c-3 -8 -6 -5 -6 6 -1 11 2 17 5 13 3 -3 4 -12 1 -19z m-337
-32 c0 -2 -8 -10 -17 -17 -16 -13 -17 -12 -4 4 13 16 21 21 21 13z m-910 -55
c0 -5 3 -18 6 -28 5 -15 4 -15 -5 -3 -9 13 -12 12 -25 -5 -14 -18 -14 -17 -4
13 12 30 28 44 28 23z m-656 -20 c3 -5 -3 -11 -15 -14 -16 -4 -18 -3 -8 9 13
16 16 17 23 5z m-54 -41 c5 0 6 -8 3 -17 -6 -15 -7 -15 -14 3 -4 10 -7 26 -7
34 0 10 2 9 5 -2 2 -10 8 -18 13 -18z m70 -1 c0 -5 -4 -8 -10 -4 -5 3 -14 -9
-19 -27 -5 -18 -10 -25 -10 -15 -1 10 4 27 9 38 11 20 30 26 30 8z m-149 -30
c-5 -13 -10 -19 -10 -12 -1 15 10 45 15 40 3 -2 0 -15 -5 -28z m53 -19 c-5 -5
-10 3 -11 18 -1 22 0 24 9 8 6 -10 6 -22 2 -26z m701 -12 c15 -31 15 -31 0
-13 -9 11 -20 19 -25 18 -5 -2 -7 4 -4 12 8 21 11 19 29 -17z m79 17 c3 -8 0
-14 -7 -12 -7 1 -11 -6 -9 -18 3 -15 1 -17 -8 -9 -9 9 -9 17 -1 33 14 25 17
26 25 6z m-110 -34 c3 -5 -1 -14 -8 -20 -12 -10 -14 -9 -11 6 2 10 4 19 4 21
2 5 10 2 15 -7z m-570 -46 c13 -25 21 -43 15 -40 -10 7 -52 85 -45 85 2 0 16
-20 30 -45z m45 -30 c0 -5 -8 6 -18 25 -10 19 -15 39 -12 44 4 9 29 -48 30
-69z m-99 21 c0 -12 -5 -7 -19 24 -11 24 -11 24 3 6 9 -11 16 -24 16 -30z
m756 -3 c-24 -43 -56 -80 -56 -64 0 11 -5 10 -22 -5 -21 -17 -21 -17 1 8 13
15 27 25 31 23 9 -6 31 19 34 37 2 18 17 40 23 35 2 -3 -2 -18 -11 -34z m-827
-28 c0 -5 -6 1 -14 15 -8 14 -14 30 -14 35 0 6 6 -1 14 -15 8 -14 14 -29 14
-35z m741 -1 c-7 -7 -22 -14 -34 -13 -18 0 -17 2 7 11 15 5 24 14 21 19 -3 6
-2 18 2 27 6 14 8 14 12 -6 2 -13 -2 -30 -8 -38z m1320 53 c0 -2 -12 -14 -27
-28 l-28 -24 24 28 c23 25 31 32 31 24z m-2028 -27 c10 -10 14 -22 9 -24 -4
-3 -13 6 -19 19 -14 30 -12 31 10 5z m1868 16 c0 -2 -8 -10 -17 -17 -16 -13
-17 -12 -4 4 13 16 21 21 21 13z m-1270 -26 c0 -5 7 -10 15 -10 18 0 20 -16 3
-26 -7 -4 -10 -4 -6 1 4 4 -3 16 -15 26 -12 10 -16 18 -9 19 6 0 12 -4 12 -10z
m-410 -22 c0 -10 -2 -18 -5 -18 -2 0 -9 8 -14 18 -8 14 -6 19 5 19 7 0 14 -9
14 -19z m373 0 c3 -9 -7 -14 -32 -15 l-36 -2 30 14 c17 7 31 14 31 14 1 1 4
-5 7 -11z m-333 -17 c-8 -16 -6 -20 8 -24 15 -4 15 -5 0 -6 -9 0 -20 4 -23 9
-9 14 1 40 15 40 7 0 8 -6 0 -19z m-49 -36 c7 -13 3 -12 -10 5 -11 14 -21 30
-21 35 0 11 14 -7 31 -40z m-83 -1 c17 -26 21 -39 13 -47 -8 -8 -11 -5 -11 9
0 11 -7 30 -16 42 -19 27 -49 30 -39 5 5 -14 3 -15 -6 -6 -6 6 -8 16 -5 22 14
21 41 10 64 -25z m227 27 c10 -17 -12 -21 -25 -6 -10 12 -10 15 3 15 9 0 18
-4 22 -9z m164 -36 c0 -5 -4 -2 -10 8 -5 9 -18 17 -27 17 -14 0 -15 2 -3 9 15
10 40 -12 40 -34z m161 35 c0 -5 -4 -10 -10 -10 -5 0 -10 5 -10 10 0 6 5 10
10 10 6 0 10 -4 10 -10z m-242 -7 c-10 -2 -28 -2 -40 0 -13 2 -5 4 17 4 22 1
32 -1 23 -4z m135 -3 c3 6 4 5 3 -2 -4 -19 -23 -20 -30 -2 -5 14 -4 15 8 5 10
-8 16 -9 19 -1z m-254 -14 c10 -12 8 -13 -8 -9 -12 3 -18 9 -15 14 7 12 10 11
23 -5z m1631 10 c0 -2 -8 -10 -17 -17 -16 -13 -17 -12 -4 4 13 16 21 21 21 13z
m-1900 -27 c0 -5 4 -8 8 -5 4 2 8 -4 8 -14 0 -22 -12 -17 -26 11 -7 13 -7 19
0 19 5 0 10 -5 10 -11z m-210 -14 c0 -8 -2 -15 -4 -15 -2 0 -6 7 -10 15 -3 8
-1 15 4 15 6 0 10 -7 10 -15z m465 5 l20 -9 -20 0 c-11 0 -27 4 -35 9 -13 9
-13 10 0 9 8 0 24 -4 35 -9z m322 3 c-12 -3 -17 -13 -15 -30 2 -21 -2 -28 -23
-33 -23 -7 -26 -5 -21 13 3 12 7 16 10 9 2 -6 10 -12 19 -12 10 0 12 6 8 20
-8 25 1 40 23 39 15 -1 15 -2 -1 -6z m103 3 c0 -3 -4 -8 -10 -11 -5 -3 -10 -1
-10 4 0 6 5 11 10 11 6 0 10 -2 10 -4z m-536 -32 c3 -8 2 -12 -4 -9 -6 3 -10
10 -10 16 0 14 7 11 14 -7z m67 -16 c11 -21 11 -22 -4 -9 -10 7 -17 17 -17 22
0 15 9 10 21 -13z m165 -22 c9 -3 14 2 14 14 0 10 3 21 8 23 4 3 7 -8 7 -24 0
-38 -36 -41 -53 -4 -15 32 -15 48 0 18 6 -12 17 -24 24 -27z m254 40 c0 -2 -7
-7 -16 -10 -8 -3 -12 -2 -9 4 6 10 25 14 25 6z m-324 -21 c-3 -8 0 -15 6 -15
6 0 9 -3 5 -6 -3 -4 -14 -4 -23 0 -13 5 -14 9 -4 21 16 19 24 19 16 0z m184
-10 c0 -8 -8 -15 -17 -14 -11 0 -13 3 -5 6 6 2 10 9 6 14 -3 5 0 9 5 9 6 0 11
-7 11 -15z m-373 -35 c1 -11 -2 -20 -8 -20 -10 0 -12 23 -2 33 9 9 9 10 10
-13z m123 -15 c0 -5 -5 -3 -10 5 -5 8 -10 20 -10 25 0 6 5 3 10 -5 5 -8 10
-19 10 -25z m-36 9 c3 -8 2 -12 -4 -9 -6 3 -10 10 -10 16 0 14 7 11 14 -7z
m-94 -36 c0 -9 4 -8 10 2 8 12 10 11 10 -7 0 -28 -2 -28 -25 -3 -10 11 -13 20
-7 20 7 0 12 -6 12 -12z m150 -20 c0 -6 -6 -5 -15 2 -8 7 -15 14 -15 16 0 2 7
1 15 -2 8 -4 15 -11 15 -16z m96 -30 c5 -7 3 -8 -5 -4 -7 5 -20 1 -30 -8 -17
-15 -19 -15 -32 1 -12 16 -12 17 2 5 22 -17 45 7 26 27 -10 11 -8 11 10 2 12
-6 25 -16 29 -23z m-108 -13 c-3 -3 -9 2 -12 12 -6 14 -5 15 5 6 7 -7 10 -15
7 -18z m-23 -13 c-3 -3 -11 0 -18 7 -9 10 -8 11 6 5 10 -3 15 -9 12 -12z m158
-18 c-26 -20 -36 -17 -15 4 9 11 21 17 25 14 5 -2 0 -10 -10 -18z m-90 9 c3
-5 -6 -9 -20 -10 -19 -1 -22 1 -12 8 17 11 26 11 32 2z m1474 -15 c-3 -8 -6
-5 -6 6 -1 11 2 17 5 13 3 -3 4 -12 1 -19z m-1522 -8 c3 -6 -1 -7 -9 -4 -18 7
-21 14 -7 14 6 0 13 -4 16 -10z m183 -18 c-16 -2 -28 -8 -28 -13 0 -6 -4 -8
-10 -4 -5 3 -2 13 8 24 13 14 21 16 37 7 19 -10 18 -11 -7 -14z m-48 -32 c0
-3 -5 -12 -11 -20 -9 -13 -10 -12 -5 3 3 11 0 20 -9 23 -8 4 -15 10 -15 15 0
5 9 4 20 -3 11 -7 20 -15 20 -18z m160 -37 c0 -12 -4 -11 -17 3 -10 11 -29 30
-43 43 -22 20 -20 20 18 -4 23 -15 42 -34 42 -42z m-86 39 c2 -4 -4 -9 -15 -9
-10 -1 -19 2 -19 8 0 11 27 12 34 1z m1297 -15 c-10 -9 -11 -8 -5 6 3 10 9 15
12 12 3 -3 0 -11 -7 -18z m-1336 -7 c3 -5 1 -10 -4 -10 -6 0 -11 5 -11 10 0 6
2 10 4 10 3 0 8 -4 11 -10z m15 -42 c0 -5 -9 -4 -20 2 -11 6 -20 12 -20 14 0
2 9 2 20 -1 11 -3 20 -9 20 -15z m228 -22 c-2 -1 -12 -8 -22 -16 -14 -10 -17
-11 -12 -2 4 7 2 20 -5 28 -11 13 -9 14 14 3 15 -7 26 -13 25 -13z m-103 -27
c-10 -15 -25 -10 -19 6 4 8 10 12 15 9 5 -3 7 -10 4 -15z m149 -4 c-4 -8 -10
-15 -15 -15 -4 0 -6 7 -3 15 4 8 10 15 15 15 4 0 6 -7 3 -15z m-76 -25 c3 -9
0 -10 -9 -4 -8 5 -18 9 -23 9 -5 0 -11 6 -13 12 -4 10 2 11 18 5 13 -5 25 -15
27 -22z m592 26 c0 -3 -4 -8 -10 -11 -5 -3 -10 -1 -10 4 0 6 5 11 10 11 6 0
10 -2 10 -4z m-476 -22 c3 -8 2 -12 -4 -9 -6 3 -10 10 -10 16 0 14 7 11 14 -7z
m357 -7 c-10 -9 -11 -8 -5 6 3 10 9 15 12 12 3 -3 0 -11 -7 -18z m54 13 c-3
-5 -11 -10 -16 -10 -6 0 -7 5 -4 10 3 6 11 10 16 10 6 0 7 -4 4 -10z m91 -31
c-9 -13 -16 -18 -16 -12 0 7 5 15 10 18 6 3 10 11 10 16 0 6 -5 7 -12 3 -7 -5
-8 -3 -3 5 5 9 11 9 17 3 7 -7 5 -18 -6 -33z m141 16 c0 -11 -7 -13 -25 -8
-17 4 -23 2 -18 -6 5 -7 -5 -11 -30 -11 -45 0 -41 6 17 24 58 18 56 18 56 1z
m48 5 c-3 -5 -11 -10 -16 -10 -6 0 -7 5 -4 10 3 6 11 10 16 10 6 0 7 -4 4 -10z
m-712 -27 c-7 -2 -19 -2 -25 0 -7 3 -2 5 12 5 14 0 19 -2 13 -5z m187 -3 c0
-5 -12 -10 -26 -10 -14 0 -23 4 -19 10 3 6 15 10 26 10 10 0 19 -4 19 -10z
m250 -7 c22 6 26 -5 8 -21 -9 -7 -19 -5 -35 8 -13 10 -23 21 -23 25 0 4 7 2
15 -5 8 -7 24 -10 35 -7z m284 9 c2 -4 -5 -9 -17 -9 -17 -2 -19 0 -7 7 18 12
18 12 24 2z m-464 -12 c0 -5 -6 -10 -14 -10 -8 0 -18 5 -21 10 -3 6 3 10 14
10 12 0 21 -4 21 -10z m50 0 c8 -5 11 -10 5 -10 -5 0 -17 5 -25 10 -8 5 -10
10 -5 10 6 0 17 -5 25 -10z m-220 -10 c0 -5 -7 -10 -15 -10 -8 0 -15 5 -15 10
0 6 7 10 15 10 8 0 15 -4 15 -10z m757 3 c-9 -2 -14 -9 -11 -15 4 -7 2 -8 -5
-4 -15 10 -4 26 17 25 15 -1 15 -2 -1 -6z m-1180 -38 c19 -30 19 -33 3 -23
-19 12 -45 58 -32 58 4 -1 17 -16 29 -35z m951 28 c-10 -2 -26 -2 -35 0 -10 3
-2 5 17 5 19 0 27 -2 18 -5z m-438 -13 c0 -13 -20 -13 -40 0 -12 8 -9 10 13
10 15 0 27 -4 27 -10z m344 -16 c3 -8 2 -12 -4 -9 -6 3 -10 10 -10 16 0 14 7
11 14 -7z m-194 -4 c0 -5 -7 -10 -15 -10 -8 0 -15 5 -15 10 0 6 7 10 15 10 8
0 15 -4 15 -10z m128 -15 c-3 -3 -9 2 -12 12 -6 14 -5 15 5 6 7 -7 10 -15 7
-18z m24 -7 c-8 -8 -9 -4 -5 13 4 13 8 18 11 10 2 -7 -1 -18 -6 -23z m93 22
c3 -5 -1 -10 -10 -10 -9 0 -13 5 -10 10 3 6 8 10 10 10 2 0 7 -4 10 -10z m115
0 c12 -8 11 -10 -7 -10 -13 0 -23 5 -23 10 0 13 11 13 30 0z m80 -6 c0 -2 -11
-4 -25 -4 -14 0 -25 4 -25 9 0 4 11 6 25 3 14 -2 25 -6 25 -8z m-377 -1 c-7
-2 -19 -2 -25 0 -7 3 -2 5 12 5 14 0 19 -2 13 -5z m460 0 c-7 -2 -19 -2 -25 0
-7 3 -2 5 12 5 14 0 19 -2 13 -5z m-330 -50 c-7 -3 -9 -12 -6 -21 8 -22 -1
-13 -15 15 -11 19 -9 20 10 15 13 -3 17 -7 11 -9z m-65 -13 c-7 -10 -14 -17
-17 -15 -4 4 18 35 25 35 2 0 -1 -9 -8 -20z m107 -11 c11 -16 1 -19 -13 -3 -7
8 -8 14 -3 14 5 0 13 -5 16 -11z m-88 -31 c-3 -8 -6 -5 -6 6 -1 11 2 17 5 13
3 -3 4 -12 1 -19z m66 -8 c-3 -12 -8 -19 -11 -16 -5 6 5 36 12 36 2 0 2 -9 -1
-20z m50 -4 c3 -8 -1 -17 -9 -20 -9 -3 -12 -1 -9 4 3 6 0 10 -7 10 -9 0 -9 3
2 10 19 12 17 12 23 -4z m-116 -48 c-3 -8 -6 -5 -6 6 -1 11 2 17 5 13 3 -3 4
-12 1 -19z m70 0 c-3 -8 -6 -5 -6 6 -1 11 2 17 5 13 3 -3 4 -12 1 -19z m67 6
c3 -8 2 -12 -4 -9 -6 3 -10 10 -10 16 0 14 7 11 14 -7z m-210 -19 c-4 -8 -11
-15 -16 -15 -6 0 -5 6 2 15 7 8 14 15 16 15 2 0 1 -7 -2 -15z m166 -40 c0 -5
-5 -3 -10 5 -5 8 -10 20 -10 25 0 6 5 3 10 -5 5 -8 10 -19 10 -25z m-130 15
c13 -8 13 -10 -2 -10 -9 0 -20 5 -23 10 -8 13 5 13 25 0z m204 1 c3 -5 -1 -11
-9 -14 -9 -4 -12 -1 -8 9 6 16 10 17 17 5z m-31 -48 c-7 -2 -19 -2 -25 0 -7 3
-2 5 12 5 14 0 19 -2 13 -5z m-212 -650 c13 -16 12 -17 -3 -4 -10 7 -18 15
-18 17 0 8 8 3 21 -13z m-298 -348 c-3 -9 -8 -14 -10 -11 -3 3 -2 9 2 15 9 16
15 13 8 -4z m-1036 -11 c-3 -3 -12 -4 -19 -1 -8 3 -5 6 6 6 11 1 17 -2 13 -5z"/>
<path d="M1529 2114 c-22 -25 -22 -26 -3 -16 12 6 24 18 28 27 8 21 3 19 -25
-11z"/>
<path d="M589 1713 c-11 -18 -25 -31 -30 -27 -5 3 -8 2 -7 -3 2 -4 -4 -18 -13
-31 -23 -32 -51 -20 -46 22 2 17 2 23 0 13 -2 -9 -9 -15 -14 -12 -5 4 -9 1 -9
-5 0 -6 -4 -9 -9 -6 -4 3 -6 -7 -4 -22 4 -21 2 -24 -6 -12 -10 13 -11 13 -12
0 0 -8 -5 -4 -10 10 -6 19 -7 16 -4 -15 8 -66 -27 -84 -57 -30 l-17 30 -1 -67
c0 -56 -3 -66 -15 -62 -9 4 -15 0 -15 -7 -1 -8 -7 -3 -14 11 -8 14 -12 29 -9
35 4 5 2 7 -2 2 -5 -4 -17 0 -27 10 -17 15 -18 15 -19 -13 l-1 -29 -9 25 c-7
21 -8 20 -4 -10 2 -19 1 -70 -3 -112 -4 -43 -6 -75 -3 -73 6 7 32 -46 26 -55
-3 -5 6 -7 20 -5 14 1 28 -2 32 -8 4 -6 1 -7 -8 -3 -8 4 -5 0 6 -9 17 -13 56
-15 288 -15 149 1 265 5 262 10 -7 12 36 41 48 33 6 -3 7 -1 4 4 -8 13 27 46
37 36 4 -4 4 1 0 11 -4 12 -3 17 2 13 17 -10 -1 106 -24 153 -12 25 -21 40
-22 34 0 -5 -7 -19 -16 -30 -8 -10 -12 -13 -8 -5 5 11 3 13 -10 8 -13 -5 -17
-3 -13 6 4 10 -3 13 -23 12 -23 -1 -30 3 -35 22 -3 13 -3 29 1 35 4 6 3 8 -4
4 -6 -3 -15 2 -21 11 -9 16 -10 14 -11 -9 0 -39 -10 -58 -30 -58 -10 0 -21 -6
-24 -12 -3 -7 -5 12 -3 44 1 31 -1 54 -5 52 -10 -6 -20 34 -12 48 4 7 3 10 -1
6 -9 -8 -56 62 -50 73 2 3 -3 6 -11 6 -8 0 -24 -15 -35 -34z m-29 -262 c-28
-56 -35 -52 -8 4 12 24 23 43 26 41 2 -2 -6 -22 -18 -45z m57 -18 c-3 -10 -5
-2 -5 17 0 19 2 27 5 18 2 -10 2 -26 0 -35z m-129 -8 c-3 -3 -9 2 -12 12 -6
14 -5 15 5 6 7 -7 10 -15 7 -18z m-81 -42 c-3 -10 -5 -2 -5 17 0 19 2 27 5 18
2 -10 2 -26 0 -35z m173 34 c0 -8 -7 -14 -15 -14 -11 0 -12 4 -4 14 6 7 13 13
15 13 2 0 4 -6 4 -13z m-100 -40 c0 -6 -7 -2 -15 9 -14 18 -14 17 -16 -16 -1
-25 -3 -28 -6 -12 -3 13 -2 30 1 39 5 12 9 13 21 3 8 -7 15 -17 15 -23z m-203
-19 c-3 -8 -6 -5 -6 6 -1 11 2 17 5 13 3 -3 4 -12 1 -19z m67 6 c3 -8 2 -12
-4 -9 -6 3 -10 10 -10 16 0 14 7 11 14 -7z m31 -44 c10 -11 16 -20 13 -20 -3
0 -13 9 -23 20 -10 11 -16 20 -13 20 3 0 13 -9 23 -20z m-42 -26 c-3 -8 -7
-14 -10 -14 -3 0 -3 7 1 15 3 8 1 15 -4 15 -6 0 -10 5 -10 11 0 8 4 8 14 -1 8
-6 12 -18 9 -26z"/>
<path d="M232 1590 c0 -19 2 -27 5 -17 2 9 2 25 0 35 -3 9 -5 1 -5 -18z"/>
<path d="M333 1560 c0 -25 2 -35 4 -22 2 12 2 32 0 45 -2 12 -4 2 -4 -23z"/>
<path d="M711 1554 c0 -11 3 -14 6 -6 3 7 2 16 -1 19 -3 4 -6 -2 -5 -13z"/>
<path d="M221 1464 c0 -11 3 -14 6 -6 3 7 2 16 -1 19 -3 4 -6 -2 -5 -13z"/>
<path d="M957 1424 c3 -27 7 -51 9 -53 8 -9 3 75 -5 88 -5 8 -7 -5 -4 -35z"/>
<path d="M212 1385 c0 -16 2 -22 5 -12 2 9 2 23 0 30 -3 6 -5 -1 -5 -18z"/>
<path d="M230 1195 c0 -28 4 -35 20 -35 15 0 20 -7 20 -25 0 -24 -2 -25 -65
-25 -63 0 -65 -1 -65 -25 0 -18 5 -25 20 -25 17 0 20 -7 20 -40 l0 -40 -75 0
-75 0 0 -30 c0 -23 4 -30 20 -30 16 0 20 -7 20 -35 0 -33 -2 -35 -35 -35 l-35
0 0 -50 0 -50 538 0 c296 0 541 2 543 4 2 3 3 25 1 50 l-4 46 -44 0 c-44 0
-44 0 -44 35 0 31 3 35 25 35 21 0 25 5 25 30 l0 30 -65 0 -65 0 0 40 c0 36 3
40 25 40 20 0 25 5 25 25 0 23 -4 25 -45 25 -41 0 -45 2 -45 24 0 16 7 26 21
29 16 4 20 12 17 34 l-3 28 -337 3 -338 2 0 -35z m147 -41 c-3 -3 -12 -4 -19
-1 -8 3 -5 6 6 6 11 1 17 -2 13 -5z m86 0 c-7 -3 -9 -13 -6 -22 4 -15 3 -15
-6 -2 -15 22 -14 30 7 29 9 0 12 -3 5 -5z m57 -10 c0 -10 5 -14 16 -10 8 3 12
2 9 -4 -10 -16 -23 -12 -35 10 -7 14 -7 20 0 20 5 0 10 -7 10 -16z m320 6 c0
-5 -6 -7 -14 -4 -7 3 -21 -2 -30 -11 -14 -14 -16 -14 -16 -1 0 8 -8 17 -17 19
-10 3 3 5 30 6 26 0 47 -3 47 -9z m-545 -20 c3 -5 1 -10 -4 -10 -6 0 -11 5
-11 10 0 6 2 10 4 10 3 0 8 -4 11 -10z m300 -8 c-3 -3 -11 0 -18 7 -9 10 -8
11 6 5 10 -3 15 -9 12 -12z m-178 2 c-3 -3 -12 -4 -19 -1 -8 3 -5 6 6 6 11 1
17 -2 13 -5z m-172 -84 c3 -6 -1 -7 -9 -4 -18 7 -21 14 -7 14 6 0 13 -4 16
-10z m54 7 c-2 -1 -15 -11 -29 -22 l-25 -20 19 23 c11 12 24 22 29 22 6 0 8
-1 6 -3z m439 -22 c-3 -3 -9 2 -12 12 -6 14 -5 15 5 6 7 -7 10 -15 7 -18z
m119 19 c-3 -3 -12 -4 -19 -1 -8 3 -5 6 6 6 11 1 17 -2 13 -5z m-477 -18 c0
-2 -7 -6 -15 -10 -8 -3 -15 -1 -15 4 0 6 7 10 15 10 8 0 15 -2 15 -4z m250 -8
c0 -7 -4 -19 -9 -27 -7 -10 -9 -7 -8 12 2 26 17 39 17 15z m-170 -2 c0 -3 -4
-8 -10 -11 -5 -3 -10 -1 -10 4 0 6 5 11 10 11 6 0 10 -2 10 -4z m-240 -21 c0
-8 -7 -15 -15 -15 -26 0 -18 20 13 29 1 1 2 -6 2 -14z m677 -7 c-3 -8 -6 -5
-6 6 -1 11 2 17 5 13 3 -3 4 -12 1 -19z m-567 -4 c0 -2 -16 -4 -35 -4 -19 0
-35 4 -35 8 0 4 16 6 35 4 19 -2 35 -6 35 -8z m236 3 c4 -4 -5 -7 -20 -7 -15
0 -25 4 -22 9 7 10 31 9 42 -2z m29 3 c3 -5 1 -10 -4 -10 -6 0 -11 5 -11 10 0
6 2 10 4 10 3 0 8 -4 11 -10z m75 -6 c0 -2 -9 -4 -21 -4 -11 0 -18 4 -14 10 5
8 35 3 35 -6z m-257 -1 c-7 -2 -21 -2 -30 0 -10 3 -4 5 12 5 17 0 24 -2 18 -5z
m80 0 c-7 -2 -21 -2 -30 0 -10 3 -4 5 12 5 17 0 24 -2 18 -5z m250 0 c-7 -2
-19 -2 -25 0 -7 3 -2 5 12 5 14 0 19 -2 13 -5z m50 0 c-7 -2 -19 -2 -25 0 -7
3 -2 5 12 5 14 0 19 -2 13 -5z m80 0 c-7 -2 -19 -2 -25 0 -7 3 -2 5 12 5 14 0
19 -2 13 -5z m-723 -72 c0 -5 -9 -7 -21 -4 -12 4 -25 0 -30 -8 -7 -11 -9 -10
-9 4 0 12 8 17 30 17 17 0 30 -4 30 -9z m99 5 c-8 -8 -78 -10 -85 -3 -4 4 14
7 41 7 27 0 46 -2 44 -4z m96 -1 c-23 -8 -85 -10 -85 -3 0 4 21 8 48 7 26 0
43 -2 37 -4z m124 1 c-9 -9 -65 -13 -84 -5 -14 5 -3 8 34 8 30 1 52 -1 50 -3z
m59 -3 c-10 -2 -26 -2 -35 0 -10 3 -2 5 17 5 19 0 27 -2 18 -5z m55 0 c-7 -2
-19 -2 -25 0 -7 3 -2 5 12 5 14 0 19 -2 13 -5z m64 1 c-3 -3 -12 -4 -19 -1 -8
3 -5 6 6 6 11 1 17 -2 13 -5z m40 -1 c-4 -3 0 -15 10 -25 9 -10 14 -20 12 -22
-2 -2 -14 10 -27 25 -21 25 -21 29 -6 29 9 0 14 -3 11 -7z m61 0 c-10 -2 -26
-2 -35 0 -10 3 -2 5 17 5 19 0 27 -2 18 -5z m189 -8 c0 -9 -4 -11 -11 -6 -6 5
-42 9 -79 9 -37 -1 -70 2 -74 6 -3 3 32 6 79 6 68 0 85 -3 85 -15z m-204 -20
c-3 -9 -8 -14 -10 -11 -3 3 -2 9 2 15 9 16 15 13 8 -4z m97 -16 c0 -5 -8 -9
-17 -8 -11 0 -13 3 -5 6 6 2 9 10 6 15 -4 7 -2 8 4 4 7 -4 12 -11 12 -17z
m-325 1 c15 -6 11 -7 -17 -7 -20 1 -35 5 -32 9 6 10 22 9 49 -2z m-378 -6 c-3
-3 -12 -4 -19 -1 -8 3 -5 6 6 6 11 1 17 -2 13 -5z m90 0 c-3 -3 -12 -4 -19 -1
-8 3 -5 6 6 6 11 1 17 -2 13 -5z m170 0 c-3 -3 -12 -4 -19 -1 -8 3 -5 6 6 6
11 1 17 -2 13 -5z m530 0 c-3 -3 -12 -4 -19 -1 -8 3 -5 6 6 6 11 1 17 -2 13
-5z m-797 -67 c10 -4 8 -6 -7 -6 -16 -1 -23 5 -23 17 0 10 3 13 8 6 4 -6 14
-14 22 -17z m44 8 c-4 -8 -7 -15 -9 -15 -2 0 -5 7 -9 15 -3 9 0 15 9 15 9 0
12 -6 9 -15z m200 0 c4 -10 -1 -15 -15 -15 -17 0 -18 2 -7 15 16 18 15 18 22
0z m151 -4 c-3 -6 -11 -11 -16 -11 -5 0 -4 6 3 14 14 16 24 13 13 -3z m59 7
c5 -10 7 -10 12 0 8 17 21 15 21 -3 0 -9 -10 -15 -24 -15 -12 0 -23 6 -23 13
0 8 -4 7 -10 -3 -8 -13 -10 -12 -10 3 0 20 25 23 34 5z m126 -3 c0 -8 -7 -15
-15 -15 -9 0 -12 6 -9 15 4 8 10 15 15 15 5 0 9 -7 9 -15z m170 11 c0 -11 -19
-15 -25 -6 -3 5 1 10 9 10 9 0 16 -2 16 -4z m90 -11 c0 -8 -7 -15 -15 -15 -8
0 -15 7 -15 15 0 8 7 15 15 15 8 0 15 -7 15 -15z m50 0 c0 -8 -2 -15 -4 -15
-2 0 -6 7 -10 15 -3 8 -1 15 4 15 6 0 10 -7 10 -15z m40 0 c0 -8 -4 -15 -10
-15 -5 0 -7 7 -4 15 4 8 8 15 10 15 2 0 4 -7 4 -15z m-793 -11 c-3 -3 -12 -4
-19 -1 -8 3 -5 6 6 6 11 1 17 -2 13 -5z m570 0 c-3 -3 -12 -4 -19 -1 -8 3 -5
6 6 6 11 1 17 -2 13 -5z"/>
</g>
</svg>
